<svg xmlns="http://www.w3.org/2000/svg" viewBox="0 0 64 64">
  <defs>
    <linearGradient id="svGradient" x1="0" y1="0" x2="1" y2="1">
      <stop offset="0%" stop-color="#27d5f7" />
      <stop offset="100%" stop-color="#7b5cff" />
    </linearGradient>
  </defs>
  <rect width="64" height="64" rx="18" fill="#0b0f1b" />
  <circle cx="32" cy="32" r="18" fill="url(#svGradient)" />
  <path
    d="M24 38c0-3 2.2-4.7 6.6-5.7 3.6-.8 5.4-1.6 5.4-3.2 0-1.7-1.4-2.6-3.6-2.6-2.3 0-4 .8-5.6 2.4l-2.6-2.6c2.1-2.2 4.7-3.4 8.5-3.4 4.6 0 7.6 2.3 7.6 6 0 3.5-2.5 5.3-6.4 6.1-3.8.8-5.6 1.6-5.6 3.3 0 1.7 1.6 2.7 4 2.7 2.4 0 4.5-1 6.4-2.9l2.5 2.7c-2.2 2.4-5 3.6-8.9 3.6-5 0-8.3-2.4-8.3-6.4z"
    fill="#0a0f1f"
  />
</svg>
